<mxfile host="app.diagrams.net" modified="2023-07-06T13:12:08.083Z" agent="Mozilla/5.0 (Windows NT 10.0; Win64; x64) AppleWebKit/537.36 (KHTML, like Gecko) Chrome/114.0.0.0 Safari/537.36" version="21.6.1" etag="5_IbebGDYpRLm3QecwtT" type="github">
  <diagram name="Page-1" id="W0-ZERNXDo-wPV4bgyPK">
    <mxGraphModel>
      <root>
        <mxCell id="0" />
        <mxCell id="1" parent="0" />
      </root>
    </mxGraphModel>
  </diagram>
</mxfile>
